# xmcd
# 
# Track frame offsets:
#     150
#     31306
#     63828
#     92433
#     134614
#     162390
#     197210
#     222742
#     248900
#     274330
#     304560
# 
# Disc length: 4320
# 
# Revision: 0
# Processed by: cddbd v1.5.2PL0 Copyright (c) Steve Scherf et al.
# Submitted via: fre:ac v1.0.17
# 
DISCID=a210de0b
DTITLE=Gary Moore - Slow Blues (remix)
DYEAR=0
DGENRE=Blues
TTITLE0=Stormy Monday
TTITLE1=Picture of the Moon
TTITLE2=The Prophet
TTITLE3=Drowning In Tears
TTITLE4=Still Got the Blues
TTITLE5=As the Years Go Passing By
TTITLE6=There's a Hole
TTITLE7=I Can't Quit You Baby
TTITLE8=Torn Inside
TTITLE9=Story of the Blues
TTITLE10=Jump'in at Shadows
EXTD=Remix from 4 cd's
EXTT0=
EXTT1=
EXTT2=
EXTT3=
EXTT4=
EXTT5=
EXTT6=
EXTT7=
EXTT8=
EXTT9=
EXTT10=
PLAYORDER=
